<?xml version="1.0" standalone="no"?>
<!DOCTYPE svg PUBLIC "-//W3C//DTD SVG 20010904//EN"
 "http://www.w3.org/TR/2001/REC-SVG-20010904/DTD/svg10.dtd">
<svg version="1.0" xmlns="http://www.w3.org/2000/svg"
 width="64.000000pt" height="64.000000pt" viewBox="0 0 64.000000 64.000000"
 preserveAspectRatio="xMidYMid meet">
<metadata>
Created by potrace 1.10, written by Peter Selinger 2001-2011
</metadata>
<g transform="translate(0.000000,64.000000) scale(0.100000,-0.100000)"
fill="#ffffff" stroke="none">
<path d="M234 610 c-54 -17 -128 -73 -161 -123 -103 -155 -50 -349 120 -439
58 -31 193 -32 252 -2 22 11 48 19 58 16 28 -6 74 44 94 102 24 70 24 242 0
312 -20 58 -66 108 -94 102 -10 -3 -36 4 -58 15 -46 23 -162 32 -211 17z m61
-35 c0 -20 -8 -27 -45 -39 -39 -13 -47 -13 -60 -1 -18 19 -6 32 46 50 54 19
59 18 59 -10z m114 8 c55 -17 62 -26 31 -43 -14 -7 -33 -7 -67 1 -57 14 -66
20 -57 42 8 21 28 21 93 0z m127 -40 c43 -44 59 -103 59 -223 0 -106 -2 -120
-28 -172 -15 -31 -37 -60 -47 -63 -29 -9 -80 33 -79 64 1 24 1 24 7 4 8 -26
52 -62 70 -56 22 8 51 78 63 152 18 110 -18 278 -63 294 -18 6 -62 -30 -70
-56 -6 -21 -6 -21 -7 3 -1 15 9 33 27 47 33 27 45 28 68 6z m-384 -69 c-33
-33 -61 -41 -69 -18 -2 5 13 29 34 53 l36 43 17 -22 c16 -21 15 -23 -18 -56z
m387 -33 c14 -44 14 -198 0 -242 -20 -57 -29 -63 -56 -37 -20 19 -24 29 -18
58 8 45 8 155 0 200 -5 28 -2 40 16 58 25 28 39 19 58 -37z m-154 25 c26 -11
35 -21 35 -39 0 -13 7 -32 15 -43 20 -26 19 -32 -7 -36 -33 -4 -33 -53 0 -52
25 1 28 -13 7 -40 -8 -11 -15 -30 -15 -43 0 -18 -9 -28 -35 -39 -155 -64 -295
120 -188 247 48 56 120 73 188 45z m-278 -51 c1 -1 -4 -23 -10 -50 -14 -51
-23 -60 -46 -46 -12 8 -13 18 -2 65 12 53 13 55 34 43 12 -7 23 -12 24 -12z
m-3 -165 c14 -43 9 -70 -15 -70 -11 0 -35 47 -43 85 -6 27 -4 30 18 30 21 0
28 -8 40 -45z m94 -148 c-5 -27 -23 -23 -67 15 l-43 36 22 17 c21 16 23 15 56
-18 19 -19 34 -42 32 -50z m101 -12 c28 -7 35 -19 22 -38 -7 -11 -19 -12 -64
-2 -54 11 -56 12 -45 35 11 26 11 25 87 5z m142 10 c30 -16 23 -26 -32 -43
-65 -21 -64 -22 -64 8 0 20 7 28 30 34 41 12 44 12 66 1z"/>
<path d="M240 436 c-18 -22 -5 -48 22 -44 17 2 23 10 23 28 0 29 -26 38 -45
16z"/>
<path d="M354 435 c-9 -23 3 -45 25 -45 23 0 35 28 20 46 -15 18 -38 18 -45
-1z"/>
<path d="M290 380 c0 -11 -4 -20 -10 -20 -16 0 -12 -67 6 -84 35 -36 84 -7 84
50 0 19 -4 34 -10 34 -5 0 -10 9 -10 20 0 11 -4 20 -10 20 -5 0 -10 -9 -10
-20 0 -11 -4 -20 -10 -20 -5 0 -10 9 -10 20 0 11 -4 20 -10 20 -5 0 -10 -9
-10 -20z"/>
<path d="M184 336 c-10 -26 4 -48 28 -44 33 4 33 52 0 56 -13 2 -25 -3 -28
-12z"/>
<path d="M234 235 c-4 -9 0 -23 9 -32 21 -21 49 -9 45 19 -4 28 -45 38 -54 13z"/>
<path d="M354 235 c-8 -21 2 -45 19 -45 21 0 38 25 31 44 -8 20 -43 21 -50 1z"/>
</g>
</svg>
