 <svg  version="1.0" xmlns="http://www.w3.org/2000/svg"  width="300.000000pt" height="300.000000pt" viewBox="0 0 300.000000 300.000000"  preserveAspectRatio="xMidYMid meet">  <g transform="translate(0.000000,300.000000) scale(0.100000,-0.100000)" fill="#ffffff" stroke="none"> <path d="M1395 1979 c-16 -5 -97 -63 -180 -129 -82 -66 -154 -119 -160 -116 -6 2 -148 0 -315 -5 -408 -11 -514 -25 -563 -75 -32 -32 -36 -54 -21 -126 11 -54 10 -57 -12 -69 -51 -27 -20 -126 55 -176 29 -19 47 -23 116 -23 l82 0 12 60 c16 78 59 136 131 173 48 25 63 28 118 24 117 -9 209 -95 220 -207 l5 -50 587 0 588 0 7 47 c14 94 70 164 159 198 138 53 300 -48 314 -195 l5 -50 114 0 115 0 33 33 c41 41 49 84 43 239 -6 173 -31 198 -208 198 l-101 0 -133 95 c-157 112 -218 142 -317 155 -93 12 -654 11 -694 -1z m223 -159 c-3 -44 -7 -82 -10 -85 -3 -3 -87 -4 -186 -3 l-181 3 83 68 c105 84 133 96 225 97 l74 0 -5 -80z m290 69 c16 -6 52 -36 79 -67 87 -103 98 -92 -91 -92 l-166 0 0 78 c0 43 3 82 7 85 10 11 137 8 171 -4z"/> </g> </svg> 